# xmcd CD database file
#
# Track frame offsets:
#	150
#	3142
#	21227
#	34392
#	52230
#	73560
#
# Disc length: 1175 seconds
#
# Revision: 0
# Processed by: cddbd v1.5.1PL0 Copyright (c) Steve Scherf et al.
# Submitted via: CDex 1.51
#
DISCID=4b049506
DTITLE=アマオトラァラ - アマオトラァラ
DYEAR=2005
DGENRE=Jazz
TTITLE0=イントロ
TTITLE1=ナミビア
TTITLE2=真昼
TTITLE3=シヴースト
TTITLE4=藍葉
TTITLE5=夏の雫
EXTD=YEAR: 2005
EXTT0=
EXTT1=
EXTT2=
EXTT3=
EXTT4=
EXTT5=
PLAYORDER=
